<?xml version="1.0" encoding="UTF-8" standalone="no"?>
<!DOCTYPE svg PUBLIC "-//W3C//DTD SVG 1.1//EN" "http://www.w3.org/Graphics/SVG/1.1/DTD/svg11.dtd">
<svg version="1.1" xmlns="http://www.w3.org/2000/svg" xmlns:xlink="http://www.w3.org/1999/xlink" preserveAspectRatio="xMidYMid meet" viewBox="0 0 640 640" width="640" height="640"><defs><path d="M577.57 316.31C577.57 473.83 452 601.72 297.32 601.72C142.65 601.72 17.08 473.83 17.08 316.31C17.08 158.78 142.65 30.89 297.32 30.89C452 30.89 577.57 158.78 577.57 316.31Z" id="cWNu1WOZX"></path><path d="M506.9 320.31L397.07 495.41L212.2 122.74L71.25 320.31" id="b6femwYHz9"></path></defs><g><g><g><use xlink:href="#cWNu1WOZX" opacity="1" fill="#f8f8f8" fill-opacity="1"></use><g><use xlink:href="#cWNu1WOZX" opacity="1" fill-opacity="0" stroke="#000000" stroke-width="24" stroke-opacity="1"></use></g><g><filter id="shadow2784757" x="8.08" y="21.89" width="579.5" height="589.84" filterUnits="userSpaceOnUse" primitiveUnits="userSpaceOnUse"><feFlood></feFlood><feComposite in2="SourceAlpha" operator="out"></feComposite><feGaussianBlur stdDeviation="1"></feGaussianBlur><feOffset dx="1" dy="1" result="afterOffset"></feOffset><feFlood flood-color="#ffffff" flood-opacity="0.8"></feFlood><feComposite in2="afterOffset" operator="in"></feComposite><feMorphology operator="dilate" radius="1"></feMorphology><feComposite in2="SourceAlpha" operator="in"></feComposite></filter><path d="M577.57 316.31C577.57 473.83 452 601.72 297.32 601.72C142.65 601.72 17.08 473.83 17.08 316.31C17.08 158.78 142.65 30.89 297.32 30.89C452 30.89 577.57 158.78 577.57 316.31Z" id="aaidU9jQ4" fill="white" fill-opacity="1" filter="url(#shadow2784757)"></path></g></g><g><g><filter id="shadow16231991" x="62.25" y="113.74" width="454.65" height="391.66" filterUnits="userSpaceOnUse" primitiveUnits="userSpaceOnUse"><feFlood></feFlood><feComposite in2="SourceAlpha" operator="in"></feComposite><feGaussianBlur stdDeviation="1"></feGaussianBlur><feOffset dx="1" dy="1" result="afterOffset"></feOffset><feFlood flood-color="#000000" flood-opacity="0.5"></feFlood><feComposite in2="afterOffset" operator="in"></feComposite><feMorphology operator="dilate" radius="1"></feMorphology><feComposite in2="SourceAlpha" operator="out"></feComposite></filter><path d="M506.9 320.31L397.07 495.41L212.2 122.74L71.25 320.31" id="aXeWLLAEW" fill="none" stroke="white" filter="url(#shadow16231991)"></path></g><use xlink:href="#b6femwYHz9" opacity="1" fill="#ffffff" fill-opacity="1"></use><g><use xlink:href="#b6femwYHz9" opacity="1" fill-opacity="0" stroke="#000000" stroke-width="41" stroke-opacity="1"></use></g><g><filter id="shadow8559558" x="62.25" y="113.74" width="454.65" height="391.66" filterUnits="userSpaceOnUse" primitiveUnits="userSpaceOnUse"><feFlood></feFlood><feComposite in2="SourceAlpha" operator="out"></feComposite><feGaussianBlur stdDeviation="1"></feGaussianBlur><feOffset dx="1" dy="1" result="afterOffset"></feOffset><feFlood flood-color="#ffffff" flood-opacity="0.8"></feFlood><feComposite in2="afterOffset" operator="in"></feComposite><feMorphology operator="dilate" radius="1"></feMorphology><feComposite in2="SourceAlpha" operator="in"></feComposite></filter><path d="M506.9 320.31L397.07 495.41L212.2 122.74L71.25 320.31" id="aBdR5zFU" fill="none" stroke="white" filter="url(#shadow8559558)"></path></g></g></g></g></svg>