<?xml version="1.0" encoding="iso-8859-1"?>
<!-- Generator: Adobe Illustrator 19.0.0, SVG Export Plug-In . SVG Version: 6.00 Build 0)  -->
<svg version="1.1" id="Capa_1" xmlns="http://www.w3.org/2000/svg" xmlns:xlink="http://www.w3.org/1999/xlink" x="0px" y="0px"
	 viewBox="0 0 390.8 390.8" style="enable-background:new 0 0 390.8 390.8;" xml:space="preserve">
<g>
	<path style="fill:#1B1B1B;" d="M390.8,224.6c0-22.8-4-45.6-12-66.8C372,139,362,121,349.6,105c1.6-3.6,2.8-7.6,2.8-11.2
		c0-6.4-2.4-13.2-7.6-18.4c-20-20-43.6-35.2-68.4-45.6c-26-10.8-53.2-16-80.8-16s-54.8,5.2-80.8,16C90,40.2,66.8,55.4,46.4,75.4
		c-5.2,5.2-7.6,11.6-7.6,18.4c0,4,0.8,7.6,2.4,11.2c-12.4,16-22.4,33.6-29.2,52.8c-7.6,21.2-12,44-12,66.8v72c0,18,7.2,34,19.2,46
		c10,10,23.6,16.8,38.8,18.8c1.2,2.8,3.2,5.2,5.2,7.2c5.2,5.2,12,8,19.6,8c7.6,0,14.4-3.2,19.6-8c5.2-5.2,8-12,8-19.6V244.6
		c0-7.2-2.8-14-7.6-18.8c0-0.4-0.4-0.4-0.8-0.8c-5.2-5.2-12-8-19.6-8c-7.6,0-14.4,3.2-19.6,8c-2,2-4,4.4-5.2,7.2
		c-14.4,1.6-27.6,8-37.6,17.6v-25.2c0-20.8,3.6-40.8,10.4-60c6-16.4,14.4-32,25.2-46.4c2.8,0.8,5.6,1.2,8,1.2
		c6.4,0,12.8-2.4,17.6-6.8c0.4-0.4,0.4-0.4,0.8-0.8c15.2-15.2,32.8-26.8,51.6-34.4c19.6-8,40-12,60.8-12c20.8,0,41.6,4,60.8,12
		c18.8,7.6,36,19.2,51.2,34.4l0.4,0.4c5.2,4.8,11.6,7.6,18,7.6c2.8,0,5.6-0.4,8-1.2c10.8,14,19.2,29.6,25.2,46.4
		c6.8,18.8,10.4,39.2,10.4,60v25.2c-10-9.6-20.8-16-35.2-17.6c-1.2-2.4-2.8-4.8-4.8-6.8c0-0.4-0.4-0.4-0.8-0.8c-5.2-5.2-12-8-19.6-8
		c-7.6,0-14.4,3.2-19.6,8c-5.2,5.2-8,12-8,19.6v104.8c0,7.6,3.2,14.4,8,19.6c5.2,5.2,12,8,19.6,8c7.6,0,14.4-3.2,19.6-8
		c2-2,4-4.4,5.2-7.2c15.2-1.6,26.4-8.4,36.4-18.8c11.6-11.6,21.6-28,21.6-46L390.8,224.6L390.8,224.6z M76,244.6c0-2,0.8-4,2.4-5.2
		c1.2-1.2,3.2-2.4,5.2-2.4s4,0.8,5.2,2.4l0.4,0.4c1.2,1.2,2,3.2,2,4.8v104.8c0,2-0.8,4-2,5.2c-1.2,1.2-3.2,2-5.2,2s-4.4-0.8-5.6-2
		c-1.2-1.2-2-3.2-2.4-5.2V244.6z M34.4,265c6-6,13.2-10,21.6-12v87.6c-8.4-2-15.6-6-21.6-12c-8-8-13.2-19.2-13.2-31.6
		C21.2,284.2,26.4,273.4,34.4,265z M330.8,98.2c-1.2,1.2-2.8,1.6-4,1.6c-1.6,0-2.8-0.4-4-1.6c-17.2-17.2-36.8-30-58-38.8
		c-22-9.2-45.2-13.6-68.8-13.6c-23.2,0-46.8,4.4-68.8,13.6C106,68.2,86.4,81,69.2,98.2l-0.4,0.4c-1.2,0.8-2.4,1.2-3.6,1.2
		c-1.6,0-2.8-0.4-4-1.6c-1.2-1.2-1.6-2.4-1.6-4c0-1.6,0.4-2.8,1.6-4c18.4-18.4,39.2-32,61.6-41.2c23.2-9.6,48-14.4,73.2-14.4
		s49.6,4.8,73.2,14.4c22.4,9.2,43.2,23.2,61.6,41.2c1.2,1.2,1.6,2.4,1.6,4C332.4,95.4,332,97,330.8,98.2z M316.4,297v52.4
		c0,2-0.8,4-2,5.2s-3.6,2-5.6,2s-4-0.8-5.2-2s-2.4-3.2-2.4-5.2V244.6c0-2,0.8-4,2.4-5.2c1.2-1.2,3.2-2.4,5.2-2.4s4,0.8,5.2,2.4
		l0.4,0.4c1.2,1.2,2,3.2,2,4.8V297z M357.6,328.6c-6,6-13.2,10-21.6,12V297v-44c8.4,2,15.6,6,21.6,12c8,8,13.2,19.2,13.2,31.6
		C370.8,309.4,365.6,320.6,357.6,328.6z"/>
</g>
<g>
</g>
<g>
</g>
<g>
</g>
<g>
</g>
<g>
</g>
<g>
</g>
<g>
</g>
<g>
</g>
<g>
</g>
<g>
</g>
<g>
</g>
<g>
</g>
<g>
</g>
<g>
</g>
<g>
</g>
</svg>
