<?xml version="1.0" encoding="iso-8859-1"?>
<!-- Generator: Adobe Illustrator 19.0.0, SVG Export Plug-In . SVG Version: 6.00 Build 0)  -->
<svg version="1.1" id="Capa_1" xmlns="http://www.w3.org/2000/svg" xmlns:xlink="http://www.w3.org/1999/xlink" x="0px" y="0px"
	 viewBox="0 0 397.6 397.6" style="enable-background:new 0 0 397.6 397.6;" xml:space="preserve">
<g>
	<g>
		<path style="fill:#1B1B1B;" d="M383.6,80.4c-8.8-8.4-20.8-14-33.6-14h-58H105.6h-58c-13.2,0-24.8,5.2-33.6,14
			C5.2,89.2,0,100.8,0,114v169.6c0,13.2,5.2,24.8,14,33.6c8.8,8.8,20.4,14,33.6,14H350c13.2,0,24.8-5.2,33.6-14
			c8.8-8.8,14-20.4,14-33.6V114C397.6,100.8,392.4,89.2,383.6,80.4z M280.4,86.8l-4.4,27.6c-0.4,2.8-1.6,5.6-3.2,7.2
			c-1.2,1.2-2.4,1.6-4,1.6H129.2c-1.6,0-3.2-0.8-4-1.6c-1.6-1.6-2.8-4.4-3.2-7.2l-4.8-27.6H280.4z M377.2,283.6
			c0,7.6-3.2,14.4-8,19.2c-4.8,4.8-12,8-19.2,8H47.6c-7.6,0-14.4-3.2-19.2-8c-4.8-4.8-8-11.6-8-19.2V114c0-7.6,3.2-14.4,8-19.2
			c4.8-4.8,11.6-8,19.2-8h49.2l4.8,30.8c1.2,6.8,4,13.6,8.8,18c4.8,4.8,10.8,7.6,18.4,7.6H268c7.6,0,13.6-2.8,18.4-7.6
			s7.6-11.2,8.8-18l4.8-30.8h50c7.6,0,14.4,3.2,19.2,8c4.8,4.8,8,11.6,8,19.2V283.6z"/>
		<path style="fill:#1B1B1B;" d="M293.6,185.2h-0.4h-0.4h-0.4H292h-0.4h-0.4h-0.4H93.6h-0.4h-0.4h-0.4H92h-0.4h-0.4
			C82,186,73.6,190,67.6,196c-0.4,0-0.4,0.4-0.8,0.4c-6.4,6.4-10.8,15.2-11.2,24.8v0.4v0.4v0.4v0.4v0.4v0.4v0.4v0.4v0.4
			c0.4,10,4.8,18.8,11.2,25.6c6.4,6.4,14.8,10.4,24.4,11.2h0.4H92h0.4h0.4h0.4h0.4h197.2h0.4h0.4h0.4h0.4h0.4h0.4h0.4
			c9.2-0.8,17.6-4.8,24-11.2c6.4-6.4,10.8-15.2,11.2-24.8v-0.4v-0.4v-0.4V224v-0.4v-0.8V222v-0.4v-0.4v-0.4
			c-0.8-9.6-4.8-18-11.2-24.4C311.2,190,302.8,186,293.6,185.2z M92.8,242.4c-11.2,0-20-9.2-20-20s9.2-20,20-20s20,9.2,20,20
			S104,242.4,92.8,242.4z M256.8,241.6H127.6c3.2-5.6,4.8-12,4.8-18.8s-1.6-13.2-4.8-18.8h129.2c-3.2,5.6-4.8,12-4.8,18.8
			S253.6,236,256.8,241.6z M309.6,222.8v0.8v0.4v0.4v0.4c0,0.4,0,0.4,0,0.8v0.4c-0.4,4.4-2.4,8-5.2,11.2c-3.2,3.2-7.2,5.2-12,5.6
			H292h-0.4h-0.4h-0.4h-0.4c-5.2,0-10-2-13.2-5.6c-3.2-3.2-5.6-8-5.6-13.2s2-10,5.6-13.2c3.2-3.2,8-5.6,13.2-5.6h0.4h0.4h0.4h0.4
			h0.4c4.8,0.4,8.8,2.4,12,5.6l0.4,0.4c2.8,3.2,4.8,6.8,4.8,11.2V222.8z"/>
	</g>
</g>
<g>
</g>
<g>
</g>
<g>
</g>
<g>
</g>
<g>
</g>
<g>
</g>
<g>
</g>
<g>
</g>
<g>
</g>
<g>
</g>
<g>
</g>
<g>
</g>
<g>
</g>
<g>
</g>
<g>
</g>
</svg>
