<?xml version="1.0" encoding="iso-8859-1"?>
<!-- Generator: Adobe Illustrator 19.0.0, SVG Export Plug-In . SVG Version: 6.00 Build 0)  -->
<svg version="1.1" id="Capa_1" xmlns="http://www.w3.org/2000/svg" xmlns:xlink="http://www.w3.org/1999/xlink" x="0px" y="0px"
	 viewBox="0 0 374.8 374.8" style="enable-background:new 0 0 374.8 374.8;" xml:space="preserve">
<g>
	<g>
		<g>
			<path style="fill:#1B1B1B;" d="M88.4,199.4V34.6c0-8.4-3.6-16-8.8-21.6C74,7.4,66.4,4.2,58,4.2c-8.4,0-16,3.6-21.6,8.8
				c-5.6,5.6-8.8,13.2-8.8,21.6v164.8c-3.6,2.4-7.2,5.2-10.8,8.4C5.6,219,0,233.8,0,248.6c0,14.8,5.6,29.6,16.8,40.8
				c3.2,3.2,6.8,6,10.8,8.4v42c0,8.4,3.6,16,8.8,21.6c5.6,5.6,13.2,8.8,21.6,8.8c8,0,15.2-3.2,20.8-8.4c0.4,0,0.4-0.4,0.8-0.8
				c5.6-5.6,8.8-13.2,8.8-21.6v-41.2c3.6-2.4,7.2-5.2,10.8-8.4c11.2-11.2,16.8-26,16.8-40.8c0.4-14.8-5.6-29.6-16.8-41.2
				C96,204.6,92.4,201.8,88.4,199.4z M50.8,27.4c2-2,4.4-2.8,7.2-2.8s5.2,1.2,7.2,2.8c2,2,2.8,4.4,2.8,7.2v157.2c-2-0.4-4-0.8-6-0.8
				c-0.8,0-1.2,0-2,0c-0.4,0-0.8,0-0.8,0c-3.6,0-6.8,0.4-10,0.8V34.6H48C48,31.8,49.2,29.4,50.8,27.4z M68.8,340.2h-0.4
				c0,2.8-1.2,5.2-2.8,7.2l-0.4,0.4c-1.6,1.6-4,2.8-6.8,2.8c-2.8,0-5.2-1.2-7.2-2.8c-2-2-2.8-4.4-2.8-7.2v-34.4
				c6.8,1.2,13.6,1.2,20.4,0V340.2z M85.2,275.8c-15.2,15.2-38.8,14.4-53.6,0c-7.2-7.2-11.2-17.2-11.2-26.8
				c0-9.6,3.6-19.2,11.2-26.8c15.2-15.2,39.2-14.4,53.6,0c7.2,7.2,11.2,17.2,11.2,26.8C96,258.6,92.4,268.2,85.2,275.8z"/>
			<path style="fill:#1B1B1B;" d="M358.4,63.8c0-0.4-0.4-0.8-0.4-0.8c-3.2-3.2-6.8-6-10.8-8.4v-20c0-8.4-3.6-16-8.8-21.6
				c-5.6-5.6-13.2-8.8-21.6-8.8c-8.4,0-16,3.6-21.6,8.8c-5.6,5.6-8.8,13.2-8.8,21.6v20c-3.6,2.4-7.2,5.2-10.8,8.4
				c-11.2,11.2-16.8,26-16.8,40.8c0,14.8,5.6,29.6,16.8,40.8c3.2,3.2,6.8,6,10.8,8.4v186.8c0,8.4,3.6,16,8.8,21.6
				c5.6,5.6,13.2,8.8,21.6,8.8c8,0,15.2-3.2,20.8-8.4c0.4,0,0.4-0.4,0.8-0.8c5.6-5.6,8.8-13.2,8.8-21.6v-186
				c3.6-2.4,7.2-5.2,10.8-8.4c11.2-11.2,16.8-26,16.8-40.8C374.8,89.8,369.2,75,358.4,63.8z M306.8,34.6c0-2.8,1.2-5.2,2.8-7.2
				c2-2,4.4-2.8,7.2-2.8s5.2,1.2,7.2,2.8c2,2,2.8,4.4,2.8,7.2V47c-6.8-1.2-13.6-1.2-20,0V34.6z M327.6,340.2h-0.4
				c0,2.8-1.2,5.2-2.8,7.2l-0.4,0.4c-1.6,1.6-4,2.8-6.8,2.8s-5.2-1.2-7.2-2.8c-2-2-2.8-4.4-2.8-7.2V161c6.8,1.2,13.6,1.2,20.4,0
				V340.2z M343.6,130.6c-14.8,14.8-38.8,14.8-53.6,0c-7.2-7.2-11.2-17.2-11.2-26.8c0-9.6,3.6-19.2,11.2-26.8
				c14.8-14.8,38.8-14.8,53.6,0l0.4,0.4c7.2,7.2,10.4,16.8,10.4,26.4C354.8,113.8,350.8,123.4,343.6,130.6z"/>
			<path style="fill:#1B1B1B;" d="M217.6,138.2V34.6c0-8.4-3.6-16-8.8-21.6c-5.6-5.6-13.2-8.8-21.6-8.8c-8.4,0-16,3.6-21.6,8.8
				c-5.6,5.6-8.8,13.2-8.8,21.6v103.6c-3.6,2.4-7.2,5.2-10.8,8.4c-11.2,11.2-16.8,26-16.8,40.8c0,14.8,5.6,29.6,16.8,40.8
				c3.2,3.2,6.8,6,10.8,8.4v103.6c0,8,3.2,15.2,8.4,20.8c0,0.4,0.4,0.4,0.8,0.8c5.6,5.6,13.2,8.8,21.6,8.8s16-3.6,21.6-8.8
				c5.6-5.6,8.8-13.2,8.8-21.2v-104c3.6-2.4,7.2-5.2,10.8-8.4c11.2-11.2,16.8-26,16.8-40.8s-5.6-29.6-17.2-40.8
				C225.2,143.4,221.6,140.6,217.6,138.2z M177.6,34.6c0-2.8,1.2-5.2,2.8-7.2c2-2,4.4-2.8,7.2-2.8s5.2,1.2,7.2,2.8
				c2,2,2.8,4.4,2.8,7.2v96c-0.4,0-0.8,0-1.2-0.4c-6.4-0.8-12.4-0.8-18.8,0.4V34.6z M197.6,340.2c0,2.8-1.2,5.2-2.8,7.2
				c-2,2-4.4,2.8-7.2,2.8c-2.8,0-5.2-1.2-7.2-2.8L180,347c-1.6-2-2.8-4.4-2.8-6.8v-96c6.8,1.2,13.6,1.2,20.4,0V340.2z M214.4,214.2
				c-15.2,15.2-39.2,14.4-53.6,0c-7.2-7.2-11.2-17.2-11.2-26.8c0-9.6,3.6-19.2,11.2-26.8c9.6-9.6,23.2-13.2,35.6-10
				c6.8,1.6,12.8,5.2,17.6,10c7.2,7.2,11.2,17.2,11.2,26.8C225.2,197,221.6,206.6,214.4,214.2z"/>
		</g>
	</g>
</g>
<g>
</g>
<g>
</g>
<g>
</g>
<g>
</g>
<g>
</g>
<g>
</g>
<g>
</g>
<g>
</g>
<g>
</g>
<g>
</g>
<g>
</g>
<g>
</g>
<g>
</g>
<g>
</g>
<g>
</g>
</svg>
