<?xml version="1.0" encoding="iso-8859-1"?>
<!-- Generator: Adobe Illustrator 19.0.0, SVG Export Plug-In . SVG Version: 6.00 Build 0)  -->
<svg version="1.1" id="Capa_1" xmlns="http://www.w3.org/2000/svg" xmlns:xlink="http://www.w3.org/1999/xlink" x="0px" y="0px"
	 viewBox="0 0 351.2 351.2" style="enable-background:new 0 0 351.2 351.2;" xml:space="preserve">
<g>
	<g>
		<path style="fill:#1B1B1B;" d="M350.8,23c-0.8-5.6-3.6-11.2-7.6-15.2c-4.4-4.4-10-7.2-16.4-7.2c-1.2,0-2,0-3.2,0.4L141.2,28.6
			c-6.4,0.8-12.8,4-17.2,8.4c-4.4,4.4-7.2,10.4-7.2,17.6V133v127.6c-0.4-0.8-0.8-1.2-1.2-1.2c-12.4-9.2-29.2-14.4-47.2-14.4
			s-35.2,5.6-47.2,14.4C8,269,0,282.6,0,297.8s8,28.8,21.2,38.4c12.4,9.2,29.2,14.4,47.2,14.4s35.2-5.6,47.2-14.4
			c13.2-9.6,21.2-23.2,21.2-38.4c0-0.4,0-1.2,0-1.6V141.8L331.2,117v116c-0.4-0.4-0.8-0.4-1.2-0.8c-12.4-9.2-29.2-14.4-47.2-14.4
			c-18.4,0-35.2,5.6-47.2,14.4c-13.2,9.6-21.2,23.2-21.2,38.4c0,15.2,8,28.8,21.2,38.4c12.4,9.2,29.2,14.4,47.2,14.4
			c18.4,0,35.2-5.6,47.2-14.4c13.2-9.6,21.2-23.2,21.2-38.4c0-0.4,0-1.2,0-1.6V106.6c0-0.4,0-0.4,0-0.8V27
			C351.2,25.8,351.2,24.2,350.8,23z M104,320.2c-8.8,6.4-21.6,10.8-35.6,10.8s-26.4-4-35.6-10.8c-8-6-13.2-14-13.2-22.4
			c0-8.4,4.8-16.4,13.2-22.4c8.8-6.4,21.6-10.8,35.6-10.8s26.4,4,35.6,10.8c8,6,13.2,14,13.2,22.4C116.8,306.2,112,314.2,104,320.2z
			 M137.2,121V54.2c0-1.2,0.4-2.4,1.2-3.2c1.2-1.2,3.6-2.4,6-2.8l182.4-27.6c0,0,0,0,0.4,0c0.8,0,1.6,0.4,2,1.2c1.2,1.2,1.6,2.4,2,4
			c0,0.4,0,0.8,0,0.8v69.6L137.2,121z M318.4,292.6c-8.8,6.4-21.6,10.8-35.6,10.8s-26.4-4-35.6-10.8c-8-6-13.2-14-13.2-22.4
			c0-8.4,4.8-16.4,13.2-22.4c8.8-6.4,21.6-10.8,35.6-10.8s26.4,4,35.6,10.8c8,6,13.2,14,13.2,22.4
			C331.2,279,326.4,286.6,318.4,292.6z"/>
	</g>
</g>
<g>
</g>
<g>
</g>
<g>
</g>
<g>
</g>
<g>
</g>
<g>
</g>
<g>
</g>
<g>
</g>
<g>
</g>
<g>
</g>
<g>
</g>
<g>
</g>
<g>
</g>
<g>
</g>
<g>
</g>
</svg>
