<?xml version="1.0" encoding="iso-8859-1"?>
<!-- Generator: Adobe Illustrator 19.0.0, SVG Export Plug-In . SVG Version: 6.00 Build 0)  -->
<svg version="1.1" id="Capa_1" xmlns="http://www.w3.org/2000/svg" xmlns:xlink="http://www.w3.org/1999/xlink" x="0px" y="0px"
	 viewBox="0 0 357.2 357.2" style="enable-background:new 0 0 357.2 357.2;" xml:space="preserve">
<g>
	<g>
		<g>
			<path style="fill:#1B1B1B;" d="M339.6,136.119c-10.8-10.8-26-17.6-42.8-17.6c-5.6,0-10,4.4-10,10c0,5.6,4.4,10,10,10
				c11.2,0,21.2,4.4,28.4,12c7.2,7.2,12,17.2,12,28.4s-4.4,21.2-12,28.4c-7.2,7.2-17.2,12-28.4,12c-5.6,0-10,4.4-10,10
				c0,5.6,4.4,10,10,10c16.8,0,32-6.8,42.8-17.6s17.6-26,17.6-42.8C357.2,162.119,350.4,146.919,339.6,136.119z"/>
			<path style="fill:#1B1B1B;" d="M259.2,34.519c-4-7.2-10.8-12-18.4-14c-7.6-2-15.6-1.2-22.8,3.2l-106.4,64.8c0,0-0.4,0-0.4,0.4
				l-27.6,16H32.8c-9.2,0-17.2,3.6-23.2,9.6s-9.6,14-9.6,23.2v82.8c0,8.8,3.6,16.8,9.2,22.4c0,0.4,0.4,0.4,0.4,0.8
				c6,6,14,9.6,23.2,9.6H84l26.4,15.2h0.4l0.4,0.4c0.4,0.4,0.8,0.4,0.8,0.4l104.4,63.6c2.4,1.6,4.8,2.8,7.6,3.6
				c2.8,0.8,6,1.2,8.8,1.2c8,0,15.2-3.2,20.8-8.4c0.4,0,0.4-0.4,0.8-0.8c5.6-5.6,8.8-12.8,8.8-21.2v-128.4v-129.2c0-0.4,0-1.2,0-1.6
				c0-2-0.4-4.4-0.8-6.4C261.6,39.319,260.8,36.919,259.2,34.519z M242.8,50.519v128.4v129.2c0,2.8-1.2,5.2-2.8,7.2l-0.4,0.4
				c-1.6,1.6-4,2.4-6.8,2.4c-1.2,0-2,0-2.8-0.4c-0.8-0.4-2-0.8-2.8-1.2c0,0-0.4,0-0.4-0.4l-104.8-64h-0.4c0,0,0,0-0.4,0h-0.4
				c-0.4-0.4-0.8-0.4-1.2-0.8l-28.8-16.8c-1.6-0.8-3.2-1.2-5.2-1.2H32.8c-3.2-0.4-6.4-1.6-9.2-4.4
				c0.068,0.068,0.106,0.106,0.134,0.134c-0.053-0.053-0.134-0.134-0.134-0.134c-2-2.4-3.2-5.2-3.2-8.4v-83.2c0-3.6,1.6-6.8,3.6-8.8
				c2.4-2.4,5.6-3.6,8.8-3.6h53.6c2,0,4-0.8,5.6-1.6l30-17.2c0.4,0,0.8-0.4,0.8-0.8l105.2-64c2.4-1.2,5.2-1.6,7.6-0.8
				c2.4,0.8,4.8,2.4,6,4.8c0.4,0.8,0.8,1.6,0.8,2.4c0.4,0.8,0.4,1.6,0.4,2.4V50.519z"/>
		</g>
	</g>
</g>
<g>
</g>
<g>
</g>
<g>
</g>
<g>
</g>
<g>
</g>
<g>
</g>
<g>
</g>
<g>
</g>
<g>
</g>
<g>
</g>
<g>
</g>
<g>
</g>
<g>
</g>
<g>
</g>
<g>
</g>
</svg>
