<?xml version="1.0" encoding="iso-8859-1"?>
<!-- Generator: Adobe Illustrator 19.0.0, SVG Export Plug-In . SVG Version: 6.00 Build 0)  -->
<svg version="1.1" id="Capa_1" xmlns="http://www.w3.org/2000/svg" xmlns:xlink="http://www.w3.org/1999/xlink" x="0px" y="0px"
	 viewBox="0 0 397.6 397.6" style="enable-background:new 0 0 397.6 397.6;" xml:space="preserve">
<g>
	<g>
		<path style="fill:#1B1B1B;" d="M339.4,58.8C300.6,19.6,249.8,0,199,0S97.4,19.2,58.6,58C19.8,97.2,0.2,148,0.2,198.8
			s19.2,101.6,58,140.4c39.2,38.8,90,58.4,140.8,58.4s101.6-19.2,140.4-58s58-89.6,58-140.4S378.2,97.6,339.4,58.8z M325,324.8
			c-34.8,34.8-80.4,52.4-126,52.4c-45.6,0-91.2-17.6-126-52.4c-35.2-34.8-52.4-80.4-52.4-126c0-45.6,17.2-91.2,52.4-126
			c34.8-34.8,80.4-52.4,126-52.4c45.6,0,91.2,17.6,126,52.4s52.4,80.4,52.4,126C377.4,244.4,359.8,290,325,324.8z"/>
		<path style="fill:#1B1B1B;" d="M317.4,182.8c-1.2-1.2-2.8-2.4-4.4-3.2l-0.4-0.4l-46.8-26.8h-0.4l-46.8-27.2
			c-0.4,0-0.4-0.4-0.8-0.4c-4.8-2.4-10-2.8-14.8-1.6c-5.2,1.2-9.6,4.8-12.8,9.6c-0.8,1.6-1.6,3.2-2,4.8c-0.4,1.2-0.4,2.8-0.8,4
			c0,0.4,0,0.8,0,1.2V156l-6.4-3.6c0,0-0.4-0.4-0.8-0.4l-46.8-26.8c-0.4,0-0.4-0.4-0.8-0.4c-4.8-2.4-10-2.8-14.8-1.6
			c-5.2,1.2-9.6,4.8-12.8,9.6c-0.8,1.6-1.6,3.2-2,4.8c-0.4,1.2-0.4,2.4-0.8,3.6c0,0.4,0,1.2,0,1.6v56v54.8c0,5.6,0.8,10.8,4.8,14.8
			s9.2,6,14.8,6c2,0,4.4-0.4,6.4-1.2c2-0.8,4-1.6,5.6-2.8l45.2-26c0.4,0,0.8-0.4,1.2-0.8l6.4-3.6v13.2c0,5.6,2.4,10.8,6,14.8
			c3.6,3.6,8.8,6,14.8,6c2,0,4.4-0.4,6.4-1.2s4-1.6,5.6-2.8l45.2-26c0.4,0,0.8-0.4,1.2-0.8l0.4-0.4l46.8-27.2
			c4.8-2.8,8.4-7.6,9.6-12.8c1.2-5.2,0.8-10.8-2-15.6C319.8,185.6,318.6,184,317.4,182.8z M301,198.8c0,0,0,0.4-0.4,0.4L254.2,226
			c-0.4,0-0.8,0.4-1.2,0.8l-46,26.4c-0.4,0.4-0.8,0.4-1.2,0.8h-0.4c0,0-0.4,0-0.4-0.4v-0.4v-30.4c0-1.6-0.4-3.6-1.2-5.2
			c-2.8-4.8-8.8-6.4-13.6-3.6l-20.8,12c-0.4,0-0.4,0.4-0.8,0.4L123,253.2c-0.4,0.4-0.8,0.4-1.2,0.8h-0.4c-0.4,0-0.4,0-0.4,0v-0.4
			v-54.8v-54.4V144l0.4-0.4h0.4l46.8,27.2c0,0,0.4,0,0.4,0.4l20.8,12c1.6,1.2,3.6,1.6,5.6,1.6c5.6,0,10-4.4,10-10v-29.6
			c0-0.4,0-0.8,0-0.8l0.4-0.4h0.4l46.8,27.2h0.4h0.4l46.4,26.8c0.4,0,0.4,0.4,0.8,0.4V198.8z"/>
	</g>
</g>
<g>
</g>
<g>
</g>
<g>
</g>
<g>
</g>
<g>
</g>
<g>
</g>
<g>
</g>
<g>
</g>
<g>
</g>
<g>
</g>
<g>
</g>
<g>
</g>
<g>
</g>
<g>
</g>
<g>
</g>
</svg>
