<?xml version="1.0" encoding="iso-8859-1"?>
<!-- Generator: Adobe Illustrator 19.0.0, SVG Export Plug-In . SVG Version: 6.00 Build 0)  -->
<svg version="1.1" id="Capa_1" xmlns="http://www.w3.org/2000/svg" xmlns:xlink="http://www.w3.org/1999/xlink" x="0px" y="0px"
	 viewBox="0 0 397.2 397.2" style="enable-background:new 0 0 397.2 397.2;" xml:space="preserve">
<g>
	<path style="fill:#1B1B1B;" d="M339,58C303,22,253.4,0,198.6,0S94.2,22.4,58.2,58c-36,36-58,85.6-58,140.4s22.4,104.4,58,140.4
		c35.6,36,85.2,58.4,140,58.4c109.6,0,198.8-88.8,198.8-198.8C397,143.6,374.6,94,339,58z M72.2,72.4c11.2-11.2,24-20.8,37.6-28.8
		l47.2,79.6l12.4,21.2c-4.4,2.4-8.4,5.2-12,8.4c-3.6,3.6-10,10.8-12.4,15.2l-21.2-12.4L43.4,110C51,96,60.6,83.6,72.2,72.4z
		 M169.8,168.8l0.4-0.4c7.6-7.2,17.6-11.6,28.8-11.6c11.6,0,22,4.8,29.2,12c7.6,7.6,12,18,12,29.2c0,11.6-4.8,22-12,29.2
		c-8,8-18.4,12.8-30,12.8c-11.6,0-22-4.8-29.2-12c-7.6-7.6-12-18-12-29.2c0-10.8,4.4-20.8,11.2-28.4l0.4-0.4l0.4-0.4l0.4-0.4
		L169.8,168.8z M198.2,376.8c-49.2,0-94-20-126-52.4c-32.4-32-52.4-76.8-52.4-126c0-25.2,5.2-48.8,14.4-70.4l78.4,46.4l24.8,14.8
		c-0.4,3.2-0.8,6.4-0.8,9.6c0,17.2,6.8,32.4,18,43.6c11.2,11.2,26.4,18,43.6,18c3.2,0,6.4-0.4,9.6-0.8l14.8,24.8l46,78
		C247,371.6,223,376.8,198.2,376.8z M286.6,353.2L239.8,274l-12.4-21.2c5.2-2.8,10.4-6.4,14.4-10.8c4.4-4.4,8-9.2,10.8-14.4
		l21.2,12.4l79.6,47.2C337.4,314.4,314.2,337.6,286.6,353.2z M283.8,222.4L259,207.6c0.4-3.2,0.8-6.4,0.8-9.6
		c0-17.2-6.8-32.4-18-43.6s-26.4-18-43.6-18c-3.2,0-6.4,0.4-9.6,0.8l-14.4-24.4l-46.4-78.4C149.4,25.2,173,20,198.2,20
		c49.2,0,94,20,126,52.4c32.4,32.4,52.4,76.8,52.4,126c0,25.2-5.2,48.8-14.4,70.4L283.8,222.4z"/>
</g>
<g>
</g>
<g>
</g>
<g>
</g>
<g>
</g>
<g>
</g>
<g>
</g>
<g>
</g>
<g>
</g>
<g>
</g>
<g>
</g>
<g>
</g>
<g>
</g>
<g>
</g>
<g>
</g>
<g>
</g>
</svg>
